<?xml version="1.0" standalone="no"?>
<!DOCTYPE svg PUBLIC "-//W3C//DTD SVG 20010904//EN"
 "http://www.w3.org/TR/2001/REC-SVG-20010904/DTD/svg10.dtd">
<svg version="1.0" xmlns="http://www.w3.org/2000/svg"
 width="503.000000pt" height="503.000000pt" viewBox="0 0 503.000000 503.000000"
 preserveAspectRatio="xMidYMid meet">
<metadata>
Created by potrace 1.11, written by Peter Selinger 2001-2013
</metadata>
<g transform="translate(0.000000,503.000000) scale(0.100000,-0.100000)"
fill="#000000" stroke="none">
<path d="M4433 4902 c-31 -13 -212 -179 -706 -649 -591 -562 -666 -637 -682
-680 -101 -271 -276 -448 -512 -523 -66 -20 -108 -41 -148 -72 l-55 -43 5 -70
c6 -62 13 -81 62 -164 l55 -93 -93 -93 c-52 -51 -582 -553 -1179 -1115 l-1085
-1021 -48 -96 c-46 -91 -47 -96 -32 -119 32 -49 54 -50 157 -8 51 21 107 49
123 62 40 32 992 937 1515 1438 696 669 745 713 748 683 l3 -29 74 0 c63 0 83
-5 146 -35 95 -45 131 -45 174 -2 19 19 37 47 41 63 3 16 19 43 34 59 15 17
33 52 39 78 22 92 184 228 377 317 60 28 133 62 161 77 53 26 152 113 498 438
99 94 266 249 370 345 322 297 354 330 366 372 6 25 7 50 0 73 -9 35 -9 36 90
140 96 101 99 105 99 151 0 197 -171 444 -356 513 -69 26 -180 27 -241 3z
m338 -91 c49 -31 75 -76 66 -113 -7 -28 -67 -86 -811 -793 -324 -308 -614
-579 -645 -602 -133 -101 -251 -95 -251 12 0 23 6 49 13 57 34 45 1554 1468
1567 1468 9 0 36 -13 61 -29z m-1896 -1841 c20 -16 19 -65 -2 -129 -13 -43
-29 -63 -89 -115 -58 -51 -77 -63 -98 -59 -31 6 -104 69 -129 111 l-17 30 97
92 98 92 63 -5 c34 -3 69 -10 77 -17z m-289 -341 c3 -6 -3 -17 -15 -25 -16
-12 -21 -24 -19 -52 l3 -38 -1160 -1103 c-638 -606 -1170 -1110 -1182 -1118
-20 -13 -24 -13 -40 2 -15 16 -15 19 -1 29 69 51 118 109 118 141 0 13 -4 14
-21 5 -18 -10 -20 -9 -17 11 2 16 374 373 1146 1101 1193 1124 1159 1094 1188
1047z m-2434 -2294 c-32 -33 -68 -73 -81 -90 -13 -18 -8 -2 14 40 20 39 55 88
78 110 38 36 42 38 45 20 2 -14 -16 -40 -56 -80z m168 21 c0 -2 -8 -10 -17
-17 -16 -13 -17 -12 -4 4 13 16 21 21 21 13z"/>
</g>
</svg>
